<mxfile host="app.diagrams.net" agent="Mozilla/5.0 (Windows NT 10.0; Win64; x64; rv:133.0) Gecko/20100101 Firefox/133.0" version="25.0.3">
  <diagram name="Page-1" id="2YBvvXClWsGukQMizWep">
    <mxGraphModel dx="879" dy="461" grid="1" gridSize="10" guides="1" tooltips="1" connect="1" arrows="1" fold="1" page="1" pageScale="1" pageWidth="850" pageHeight="1100" math="0" shadow="0">
      <root>
        <mxCell id="0" />
        <mxCell id="1" parent="0" />
        <mxCell id="CObYJEAy56xA2G8EUnc1-1" value="S&amp;amp;C" style="shape=umlLifeline;perimeter=lifelinePerimeter;whiteSpace=wrap;html=1;container=1;dropTarget=0;collapsible=0;recursiveResize=0;outlineConnect=0;portConstraint=eastwest;newEdgeStyle={&quot;edgeStyle&quot;:&quot;elbowEdgeStyle&quot;,&quot;elbow&quot;:&quot;vertical&quot;,&quot;curved&quot;:0,&quot;rounded&quot;:0};" parent="1" vertex="1">
          <mxGeometry x="320" y="40" width="100" height="450" as="geometry" />
        </mxCell>
        <mxCell id="CObYJEAy56xA2G8EUnc1-6" value="" style="shape=umlLifeline;perimeter=lifelinePerimeter;whiteSpace=wrap;html=1;container=1;dropTarget=0;collapsible=0;recursiveResize=0;outlineConnect=0;portConstraint=eastwest;newEdgeStyle={&quot;curved&quot;:0,&quot;rounded&quot;:0};participant=umlActor;" parent="1" vertex="1">
          <mxGeometry x="145" y="40" width="20" height="450" as="geometry" />
        </mxCell>
        <mxCell id="CObYJEAy56xA2G8EUnc1-7" value="Student" style="text;html=1;align=center;verticalAlign=middle;resizable=0;points=[];autosize=1;strokeColor=none;fillColor=none;" parent="1" vertex="1">
          <mxGeometry x="90" y="50" width="60" height="30" as="geometry" />
        </mxCell>
        <mxCell id="CObYJEAy56xA2G8EUnc1-9" value="applyToInternship()" style="text;html=1;align=center;verticalAlign=middle;resizable=0;points=[];autosize=1;strokeColor=none;fillColor=none;" parent="1" vertex="1">
          <mxGeometry x="189" y="93" width="130" height="30" as="geometry" />
        </mxCell>
        <mxCell id="CObYJEAy56xA2G8EUnc1-14" value="alternative" style="shape=umlFrame;whiteSpace=wrap;html=1;pointerEvents=0;width=80;height=30;" parent="1" vertex="1">
          <mxGeometry x="95" y="270" width="360" height="250" as="geometry" />
        </mxCell>
        <mxCell id="CObYJEAy56xA2G8EUnc1-15" value="&lt;b&gt;SD&lt;/b&gt;&amp;nbsp;Application for Internship" style="shape=umlFrame;whiteSpace=wrap;html=1;pointerEvents=0;width=180;height=30;" parent="1" vertex="1">
          <mxGeometry x="80" width="400" height="540" as="geometry" />
        </mxCell>
        <mxCell id="CObYJEAy56xA2G8EUnc1-17" value="" style="endArrow=none;dashed=1;html=1;rounded=0;exitX=0.014;exitY=0.49;exitDx=0;exitDy=0;exitPerimeter=0;entryX=0.994;entryY=0.495;entryDx=0;entryDy=0;entryPerimeter=0;" parent="1" edge="1">
          <mxGeometry width="50" height="50" relative="1" as="geometry">
            <mxPoint x="99.99999999999996" y="430" as="sourcePoint" />
            <mxPoint x="452.7999999999999" y="431" as="targetPoint" />
          </mxGeometry>
        </mxCell>
        <mxCell id="CObYJEAy56xA2G8EUnc1-19" value="else" style="text;html=1;align=center;verticalAlign=middle;resizable=0;points=[];autosize=1;strokeColor=none;fillColor=none;" parent="1" vertex="1">
          <mxGeometry x="95" y="430" width="50" height="30" as="geometry" />
        </mxCell>
        <mxCell id="CObYJEAy56xA2G8EUnc1-20" value="if validateApplication(conditionsAccepted)" style="text;html=1;align=center;verticalAlign=middle;resizable=0;points=[];autosize=1;strokeColor=none;fillColor=none;labelBackgroundColor=default;" parent="1" vertex="1">
          <mxGeometry x="95" y="300" width="240" height="30" as="geometry" />
        </mxCell>
        <mxCell id="CObYJEAy56xA2G8EUnc1-24" value="redirectToInternshipPage(message)" style="html=1;verticalAlign=bottom;endArrow=open;dashed=1;endSize=8;curved=0;rounded=0;" parent="1" edge="1">
          <mxGeometry x="-0.0028" relative="1" as="geometry">
            <mxPoint x="367.9999999999999" y="470" as="sourcePoint" />
            <mxPoint x="153.44444444444446" y="470" as="targetPoint" />
            <mxPoint as="offset" />
          </mxGeometry>
        </mxCell>
        <mxCell id="HJIBpvxVfIBrpGYPyr1l-3" value="redirectToInternshipPage()" style="html=1;verticalAlign=bottom;endArrow=open;dashed=1;endSize=8;curved=0;rounded=0;" parent="1" target="CObYJEAy56xA2G8EUnc1-6" edge="1">
          <mxGeometry relative="1" as="geometry">
            <mxPoint x="370" y="150" as="sourcePoint" />
            <mxPoint x="190.42857142857144" y="150" as="targetPoint" />
            <Array as="points">
              <mxPoint x="280.5" y="150" />
            </Array>
          </mxGeometry>
        </mxCell>
        <mxCell id="HJIBpvxVfIBrpGYPyr1l-5" value="confirmsApplication(profileData, conditionsAccepted)" style="text;html=1;align=center;verticalAlign=middle;resizable=0;points=[];autosize=1;strokeColor=none;fillColor=none;" parent="1" vertex="1">
          <mxGeometry x="108" y="165" width="300" height="30" as="geometry" />
        </mxCell>
        <mxCell id="HJIBpvxVfIBrpGYPyr1l-6" value="redirectToProfilePage()" style="html=1;verticalAlign=bottom;endArrow=open;dashed=1;endSize=8;curved=0;rounded=0;" parent="1" edge="1">
          <mxGeometry x="0.0207" relative="1" as="geometry">
            <mxPoint x="369.5" y="400" as="sourcePoint" />
            <mxPoint x="155" y="400" as="targetPoint" />
            <Array as="points">
              <mxPoint x="296.5" y="400" />
              <mxPoint x="160" y="400" />
            </Array>
            <mxPoint as="offset" />
          </mxGeometry>
        </mxCell>
        <mxCell id="9wymKoMhJ7wCNrpig5R5-1" value="" style="html=1;points=[[0,0,0,0,5],[0,1,0,0,-5],[1,0,0,0,5],[1,1,0,0,-5]];perimeter=orthogonalPerimeter;outlineConnect=0;targetShapes=umlLifeline;portConstraint=eastwest;newEdgeStyle={&quot;curved&quot;:0,&quot;rounded&quot;:0};" vertex="1" parent="1">
          <mxGeometry x="365" y="120" width="10" height="30" as="geometry" />
        </mxCell>
        <mxCell id="CObYJEAy56xA2G8EUnc1-8" value="" style="edgeStyle=elbowEdgeStyle;fontSize=12;html=1;endArrow=blockThin;endFill=1;rounded=0;" parent="1" source="CObYJEAy56xA2G8EUnc1-6" target="CObYJEAy56xA2G8EUnc1-1" edge="1">
          <mxGeometry width="160" relative="1" as="geometry">
            <mxPoint x="190" y="120" as="sourcePoint" />
            <mxPoint x="369.5" y="180" as="targetPoint" />
            <Array as="points">
              <mxPoint x="270" y="120" />
            </Array>
          </mxGeometry>
        </mxCell>
        <mxCell id="9wymKoMhJ7wCNrpig5R5-2" value="" style="html=1;points=[[0,0,0,0,5],[0,1,0,0,-5],[1,0,0,0,5],[1,1,0,0,-5]];perimeter=orthogonalPerimeter;outlineConnect=0;targetShapes=umlLifeline;portConstraint=eastwest;newEdgeStyle={&quot;curved&quot;:0,&quot;rounded&quot;:0};" vertex="1" parent="1">
          <mxGeometry x="365" y="190" width="10" height="280" as="geometry" />
        </mxCell>
        <mxCell id="HJIBpvxVfIBrpGYPyr1l-8" value="" style="edgeStyle=elbowEdgeStyle;fontSize=12;html=1;endArrow=blockThin;endFill=1;rounded=0;" parent="1" edge="1">
          <mxGeometry width="160" relative="1" as="geometry">
            <mxPoint x="155" y="190" as="sourcePoint" />
            <mxPoint x="370" y="190" as="targetPoint" />
            <Array as="points">
              <mxPoint x="270" y="190" />
            </Array>
          </mxGeometry>
        </mxCell>
        <mxCell id="HJIBpvxVfIBrpGYPyr1l-12" value="" style="html=1;points=[[0,0,0,0,5],[0,1,0,0,-5],[1,0,0,0,5],[1,1,0,0,-5]];perimeter=orthogonalPerimeter;outlineConnect=0;targetShapes=umlLifeline;portConstraint=eastwest;newEdgeStyle={&quot;curved&quot;:0,&quot;rounded&quot;:0};" parent="1" vertex="1">
          <mxGeometry x="370" y="226" width="10" height="30" as="geometry" />
        </mxCell>
        <mxCell id="HJIBpvxVfIBrpGYPyr1l-13" value="validateApplication(conditionsAccepted)" style="html=1;align=left;spacingLeft=2;endArrow=block;rounded=0;edgeStyle=orthogonalEdgeStyle;curved=0;rounded=0;" parent="1" edge="1">
          <mxGeometry x="-1" y="-76" relative="1" as="geometry">
            <mxPoint x="375" y="206" as="sourcePoint" />
            <Array as="points">
              <mxPoint x="405" y="206" />
              <mxPoint x="405" y="236" />
            </Array>
            <mxPoint x="-75" y="-66" as="offset" />
            <mxPoint x="380" y="236" as="targetPoint" />
          </mxGeometry>
        </mxCell>
        <mxCell id="HJIBpvxVfIBrpGYPyr1l-16" value="" style="html=1;points=[[0,0,0,0,5],[0,1,0,0,-5],[1,0,0,0,5],[1,1,0,0,-5]];perimeter=orthogonalPerimeter;outlineConnect=0;targetShapes=umlLifeline;portConstraint=eastwest;newEdgeStyle={&quot;curved&quot;:0,&quot;rounded&quot;:0};" parent="1" vertex="1">
          <mxGeometry x="370" y="345" width="10" height="33" as="geometry" />
        </mxCell>
        <mxCell id="HJIBpvxVfIBrpGYPyr1l-17" value="writeApplicationToDb(profileData)" style="html=1;align=left;spacingLeft=2;endArrow=block;rounded=0;edgeStyle=orthogonalEdgeStyle;curved=0;rounded=0;entryX=1;entryY=0;entryDx=0;entryDy=5;entryPerimeter=0;" parent="1" target="HJIBpvxVfIBrpGYPyr1l-16" edge="1">
          <mxGeometry x="-1" y="-51" relative="1" as="geometry">
            <mxPoint x="375" y="322" as="sourcePoint" />
            <Array as="points">
              <mxPoint x="405" y="322" />
              <mxPoint x="405" y="350" />
            </Array>
            <mxPoint x="-50" y="-43" as="offset" />
            <mxPoint x="385" y="352" as="targetPoint" />
          </mxGeometry>
        </mxCell>
      </root>
    </mxGraphModel>
  </diagram>
</mxfile>
